<?xml version="1.0" encoding="iso-8859-1"?>
<!-- Generator: Adobe Illustrator 19.0.0, SVG Export Plug-In . SVG Version: 6.00 Build 0)  -->
<svg xmlns="http://www.w3.org/2000/svg" xmlns:xlink="http://www.w3.org/1999/xlink" version="1.1" id="Capa_1" x="0px" y="0px" viewBox="0 0 512 512" style="enable-background:new 0 0 512 512;" xml:space="preserve">
<rect x="92.9" y="170.68" style="fill:#2A7182;" width="290.92" height="202.01"/>
<g>
	<rect x="92.9" y="321.7" style="fill:#1E5D68;" width="290.92" height="50.993"/>
	<path style="fill:#1E5D68;" d="M92.901,170.684v106.958c59.067,0,106.958-47.892,106.958-106.958L92.901,170.684L92.901,170.684z"/>
</g>
<g>
	<path style="fill:#9DA5A8;" d="M92.9,89.091c-45.062,0-81.591,36.53-81.591,81.592s36.53,81.591,81.591,81.591   s81.592-36.53,81.592-81.591S137.962,89.091,92.9,89.091z M92.9,228.366c-31.858,0-57.683-25.826-57.683-57.683   c0-31.858,25.826-57.684,57.683-57.684c31.858,0,57.684,25.826,57.684,57.684S124.758,228.366,92.9,228.366z"/>
	<path style="fill:#9DA5A8;" d="M284.809,7.5c-45.062,0-81.591,36.53-81.591,81.592s36.53,81.591,81.591,81.591   s81.592-36.53,81.592-81.591S329.871,7.5,284.809,7.5z M284.809,146.775c-31.858,0-57.683-25.826-57.683-57.683   c0-31.858,25.826-57.684,57.683-57.684c31.858,0,57.684,25.826,57.684,57.684C342.493,120.949,316.667,146.775,284.809,146.775z"/>
	<circle style="fill:#9DA5A8;" cx="212.69" cy="258.92" r="12.834"/>
	<circle style="fill:#9DA5A8;" cx="284.81" cy="207.12" r="12.834"/>
	<circle style="fill:#9DA5A8;" cx="225.31" cy="207.12" r="12.834"/>
</g>
<rect x="119.93" y="321.7" style="fill:#F1E9C5;" width="76.27" height="24.04"/>
<rect x="219" y="321.7" style="fill:#E66480;" width="32.399" height="24.04"/>
<rect x="273.98" y="321.7" style="fill:#F5C350;" width="32.399" height="24.04"/>
<polygon style="fill:#9DA5A8;" points="432.977,240.144 432.977,270.62 418.431,276.85 403.884,283.069 403.884,227.684   418.431,233.914 "/>
<g>
	<polygon style="fill:#CBCFD1;" points="418.431,233.914 432.977,240.144 432.977,270.62 418.431,276.85  "/>
	<polygon style="fill:#CBCFD1;" points="500.691,216.629 500.691,294.124 468.589,294.124 452.538,264.25 452.538,246.504    468.589,216.629  "/>
</g>
<polygon style="fill:#9DA5A8;" points="470.596,216.629 470.596,294.124 468.589,294.124 452.538,264.25 452.538,246.504   468.589,216.629 "/>
<g>
	<rect x="383.82" y="211.47" style="fill:#1E5D68;" width="20.06" height="87.34"/>
	<path style="fill:#1E5D68;" d="M443.458,279.33h-0.899c-5.292,0-9.582-4.29-9.582-9.582v-29.216c0-5.292,4.29-9.582,9.582-9.582   h0.899c5.292,0,9.582,4.29,9.582,9.582v29.216C453.04,275.039,448.75,279.33,443.458,279.33z"/>
</g>
<rect x="163.46" y="372.69" style="fill:#9DA5A8;" width="162.51" height="26.476"/>
<g>
	<circle style="fill:#2A7182;" cx="284.81" cy="89.09" r="14.664"/>
	<circle style="fill:#2A7182;" cx="92.9" cy="170.68" r="14.664"/>
</g>
<rect x="222.91" y="399.17" style="fill:#CBCFD1;" width="42.22" height="105.33"/>
<rect x="222.91" y="399.17" style="fill:#9DA5A8;" width="42.22" height="58.18"/>
<rect x="214.52" y="399.17" style="fill:#2A7182;" width="59.01" height="35.11"/>
<path d="M158.084,170.683c0-0.05-0.006-0.098-0.007-0.147c-0.037-17.308-6.783-33.585-19.008-45.86  c-0.027-0.027-0.049-0.057-0.076-0.084c-0.028-0.028-0.058-0.051-0.086-0.078c-0.052-0.051-0.104-0.102-0.158-0.151  c-12.283-12.162-28.543-18.857-45.829-18.862c-0.006,0-0.013-0.001-0.019-0.001s-0.012,0.001-0.018,0.001  c-17.282,0.004-33.541,6.697-45.823,18.855c-0.064,0.058-0.125,0.118-0.187,0.178c-0.02,0.02-0.043,0.037-0.063,0.057  c-0.017,0.017-0.031,0.036-0.048,0.053c-12.254,12.288-19.011,28.593-19.038,45.928c-0.001,0.037-0.005,0.073-0.005,0.109  c0,0.039,0.005,0.076,0.006,0.115c0.031,17.36,6.803,33.682,19.084,45.975C59.121,229.088,75.491,235.87,92.9,235.87  c17.404,0,33.768-6.778,46.081-19.086c0.004-0.004,0.007-0.006,0.011-0.01c0.002-0.002,0.004-0.004,0.006-0.006  c12.268-12.28,19.038-28.588,19.078-45.933C158.077,170.784,158.084,170.734,158.084,170.683z M133.294,200.47l-20.346-20.346  c0.299-0.632,0.569-1.279,0.808-1.941h28.769C141.318,186.276,138.165,193.891,133.294,200.47z M43.275,178.183h28.77  c0.239,0.662,0.509,1.31,0.808,1.941l-20.347,20.347C47.635,193.891,44.482,186.276,43.275,178.183z M52.51,140.898l20.343,20.344  c-0.299,0.631-0.569,1.279-0.808,1.941H43.276C44.482,155.092,47.638,147.478,52.51,140.898z M102.342,150.635  c-0.632-0.299-1.279-0.569-1.941-0.808v-28.772c8.092,1.207,15.706,4.363,22.284,9.237L102.342,150.635z M85.4,149.827  c-0.662,0.239-1.309,0.509-1.941,0.808l-20.343-20.343c6.578-4.874,14.192-8.03,22.284-9.237  C85.4,121.055,85.4,149.827,85.4,149.827z M83.459,190.73c0.631,0.299,1.279,0.569,1.941,0.808v28.777  c-8.096-1.207-15.712-4.362-22.29-9.236L83.459,190.73z M100.4,191.538c0.662-0.239,1.31-0.509,1.941-0.808l20.349,20.349  c-6.579,4.874-14.195,8.029-22.29,9.236V191.538z M113.756,163.183c-0.239-0.662-0.509-1.309-0.808-1.941l20.343-20.343  c4.871,6.58,8.027,14.193,9.233,22.284H113.756z"/>
<path d="M284.902,23.912c-0.031,0-0.061-0.005-0.092-0.005c-0.032,0-0.063,0.004-0.094,0.005  c-17.38,0.025-33.712,6.798-45.998,19.084c-12.269,12.27-19.04,28.575-19.083,45.928c-0.001,0.056-0.008,0.11-0.008,0.167  s0.007,0.113,0.009,0.169c0.044,17.352,6.815,33.655,19.083,45.922c12.263,12.264,28.559,19.033,45.905,19.082  c0.063,0.002,0.124,0.01,0.188,0.01c0.063,0,0.123-0.008,0.186-0.009c17.347-0.048,33.644-6.818,45.908-19.082  c12.286-12.285,19.06-28.618,19.085-45.997c0-0.032,0.005-0.063,0.005-0.095c0-0.031-0.004-0.061-0.005-0.092  c-0.024-17.381-6.798-33.715-19.085-46.003C318.617,30.71,302.283,23.936,284.902,23.912z M325.206,118.883l-20.35-20.35  c0.299-0.632,0.569-1.279,0.808-1.941h28.772C333.23,104.689,330.077,112.306,325.206,118.883z M235.184,96.591h28.769  c0.239,0.662,0.509,1.31,0.808,1.941l-20.349,20.348C239.543,112.305,236.39,104.689,235.184,96.591z M244.411,59.301l20.35,20.35  c-0.299,0.631-0.569,1.279-0.808,1.941h-28.77C236.389,73.494,239.542,65.877,244.411,59.301z M294.25,69.044  c-0.631-0.299-1.279-0.569-1.941-0.808V39.464c8.099,1.205,15.715,4.359,22.292,9.229L294.25,69.044z M277.309,68.236  c-0.662,0.239-1.31,0.509-1.941,0.808l-20.35-20.35c6.577-4.87,14.193-8.024,22.292-9.229L277.309,68.236L277.309,68.236z   M275.368,109.139c0.632,0.299,1.279,0.569,1.941,0.808v28.769c-8.098-1.205-15.714-4.358-22.29-9.228L275.368,109.139z   M292.309,109.947c0.662-0.239,1.309-0.509,1.941-0.808l20.349,20.349c-6.577,4.87-14.192,8.023-22.29,9.228V109.947z   M305.664,81.591c-0.239-0.662-0.509-1.309-0.808-1.941l20.351-20.351c4.87,6.577,8.024,14.194,9.229,22.292H305.664z"/>
<path d="M112.428,345.742c0,4.142,3.358,7.5,7.5,7.5h76.274c4.142,0,7.5-3.358,7.5-7.5v-24.043c0-4.142-3.358-7.5-7.5-7.5h-76.274  c-4.142,0-7.5,3.358-7.5,7.5C112.428,321.699,112.428,345.742,112.428,345.742z M127.428,329.199h61.274v9.043h-61.274  C127.428,338.242,127.428,329.199,127.428,329.199z"/>
<path d="M251.402,353.242c4.142,0,7.5-3.358,7.5-7.5v-24.043c0-4.142-3.358-7.5-7.5-7.5h-32.398c-4.142,0-7.5,3.358-7.5,7.5v24.043  c0,4.142,3.358,7.5,7.5,7.5H251.402z M226.503,329.199h17.398v9.043h-17.398V329.199z"/>
<path d="M266.481,321.699v24.043c0,4.142,3.358,7.5,7.5,7.5h32.398c4.142,0,7.5-3.358,7.5-7.5v-24.043c0-4.142-3.358-7.5-7.5-7.5  h-32.398C269.839,314.199,266.481,317.557,266.481,321.699z M281.481,329.199h17.398v9.043h-17.398V329.199z"/>
<path d="M119.928,304.845h76.274c4.142,0,7.5-3.358,7.5-7.5s-3.358-7.5-7.5-7.5h-76.274c-4.142,0-7.5,3.358-7.5,7.5  S115.786,304.845,119.928,304.845z"/>
<path d="M362.229,345.742V198.03c0-4.142-3.358-7.5-7.5-7.5s-7.5,3.358-7.5,7.5v147.711c0,4.142,3.358,7.5,7.5,7.5  S362.229,349.884,362.229,345.742z"/>
<path d="M500.69,209.13h-32.1c-2.762,0-5.3,1.518-6.607,3.95l-7.669,14.272c-2.953-2.437-6.736-3.902-10.854-3.902h-0.9  c-5.56,0-10.492,2.682-13.613,6.807l-17.563-7.517v-11.269c0-4.142-3.358-7.5-7.5-7.5H391.32V170.68c0-4.142-3.358-7.5-7.5-7.5  h-49.591c23.901-15.995,39.672-43.234,39.672-74.09c0-18.992-5.896-37.118-17.049-52.418c-2.44-3.347-7.131-4.083-10.479-1.643  c-3.347,2.44-4.083,7.131-1.643,10.479C354,58.225,358.9,73.295,358.9,89.09c0,40.854-33.237,74.09-74.09,74.09  s-74.09-33.237-74.09-74.09c0-27.333,14.971-52.355,39.075-65.306C260.47,18.038,272.578,15,284.81,15  c15.098,0,29.616,4.507,41.982,13.034c3.41,2.352,8.082,1.493,10.432-1.917c2.352-3.41,1.493-8.081-1.917-10.432  C320.425,5.424,302.963,0,284.81,0c-14.56,0-28.981,3.59-41.735,10.374L65.451,85.914C28.565,97.84,3.81,131.844,3.81,170.68  c0,21.426,7.716,42.133,21.726,58.308c13.865,16.008,32.973,26.576,53.801,29.756c2.003,0.306,4.029,0.534,6.063,0.703V308  c0,4.142,3.358,7.5,7.5,7.5s7.5-3.358,7.5-7.5v-46.003l106.946,16.523c1.704,0.466,3.488,0.736,5.337,0.737  c0.006,0,0.013,0.001,0.019,0.001c0.017,0,0.033-0.004,0.05-0.004c10.973-0.032,19.907-8.802,20.243-19.703  c0.034-0.407,0.034-0.796,0.003-1.203c-0.08-2.859-0.752-5.565-1.899-8.014l-5.762-22.88c11.203-0.012,20.313-9.128,20.313-20.333  c0-1.848-0.27-3.631-0.734-5.334h20.294c-0.464,1.703-0.734,3.486-0.734,5.334c0,11.212,9.122,20.334,20.334,20.334  s20.334-9.122,20.334-20.334c0-10.953-8.711-19.886-19.566-20.295c-0.253-0.026-0.509-0.039-0.768-0.039h-59.495  c-0.259,0-0.516,0.013-0.768,0.039c-10.645,0.401-19.205,9.004-19.534,19.666c-0.034,0.407-0.034,0.796-0.003,1.203  c0.08,2.859,0.752,5.565,1.899,8.014l5.762,22.88c-11.203,0.012-20.313,9.128-20.313,20.333c0,0.716,0.039,1.424,0.112,2.121  l-62.026-9.583c28.264-13.189,48.506-40.78,51.228-73.28H376.32v187.01H100.4v-30.02c0-4.142-3.358-7.5-7.5-7.5s-7.5,3.358-7.5,7.5  v37.52c0,4.142,3.358,7.5,7.5,7.5h63.057v18.977c0,4.142,3.358,7.5,7.5,7.5h43.561v27.611c0,4.142,3.358,7.5,7.5,7.5h0.892V504.5  c0,4.142,3.358,7.5,7.5,7.5h42.22c4.142,0,7.5-3.358,7.5-7.5v-20.8c0-4.142-3.358-7.5-7.5-7.5s-7.5,3.358-7.5,7.5V497h-27.22  v-55.222h27.22v15.572c0,4.142,3.358,7.5,7.5,7.5s7.5-3.358,7.5-7.5v-15.572h0.893c4.142,0,7.5-3.358,7.5-7.5v-27.611h44.948  c4.142,0,7.5-3.358,7.5-7.5V380.19h50.349c4.142,0,7.5-3.358,7.5-7.5v-66.382h12.564c4.142,0,7.5-3.358,7.5-7.5v-10.79l17.834-7.633  c3.132,3.922,7.944,6.445,13.342,6.445h0.9c4.037,0,7.746-1.416,10.673-3.766l7.85,14.615c1.307,2.433,3.846,3.951,6.607,3.951h32.1  c4.142,0,7.5-3.358,7.5-7.5v-77.5C508.19,212.488,504.832,209.13,500.69,209.13z M225.314,212.456c-2.941,0-5.334-2.393-5.334-5.334  s2.393-5.334,5.334-5.334s5.334,2.393,5.334,5.334S228.256,212.456,225.314,212.456z M284.809,212.456  c-2.941,0-5.334-2.393-5.334-5.334s2.393-5.334,5.334-5.334s5.334,2.393,5.334,5.334S287.75,212.456,284.809,212.456z   M212.692,253.588c2.941,0,5.334,2.393,5.334,5.334c0,2.941-2.393,5.334-5.334,5.334s-5.334-2.393-5.334-5.334  S209.751,253.588,212.692,253.588z M92.9,244.77c-3.786,0-7.587-0.287-11.298-0.854C45.805,238.45,18.81,206.965,18.81,170.68  c0-32.421,20.737-60.798,51.608-70.614c7.233-2.306,14.797-3.476,22.481-3.476c40.854,0,74.09,33.237,74.09,74.09  C166.99,211.533,133.753,244.77,92.9,244.77z M181.672,163.18c-3.341-39.887-33.071-72.383-71.631-79.929l99.906-42.488  c-9.131,14.144-14.227,30.842-14.227,48.327c0,30.856,15.77,58.096,39.672,74.09H181.672z M266.023,426.778h-44.005v-20.111h0.834  c0.02,0,0.038,0.003,0.058,0.003h42.22c0.02,0,0.038-0.003,0.058-0.003h0.835V426.778z M318.471,391.667h-44.948h-59.005h-43.561  V380.19h147.514V391.667z M396.384,291.308h-5.063v-72.336h5.063v8.717v55.381V291.308z M425.477,265.67l-14.092,6.031v-32.645  l14.092,6.031V265.67z M445.54,269.75c0,1.147-0.933,2.08-2.08,2.08h-0.9c-1.147,0-2.08-0.933-2.08-2.08v-29.22  c0-1.146,0.933-2.08,2.08-2.08h0.9c1.147,0,2.08,0.933,2.08,2.08v5.04l0,0l0,0v19.609l0,0l0,0V269.75z M460.54,263.293v-15.835  l2.556-4.756v25.35L460.54,263.293z M493.19,286.63h-15.094v-62.5h15.094V286.63z"/>
<path d="M276.204,258.765h27.954c4.142,0,7.5-3.358,7.5-7.5s-3.358-7.5-7.5-7.5h-27.954c-4.142,0-7.5,3.358-7.5,7.5  S272.062,258.765,276.204,258.765z"/>
<path d="M276.204,279.187h27.954c4.142,0,7.5-3.358,7.5-7.5s-3.358-7.5-7.5-7.5h-27.954c-4.142,0-7.5,3.358-7.5,7.5  S272.062,279.187,276.204,279.187z"/>
<path d="M276.204,299.608h27.954c4.142,0,7.5-3.358,7.5-7.5s-3.358-7.5-7.5-7.5h-27.954c-4.142,0-7.5,3.358-7.5,7.5  S272.062,299.608,276.204,299.608z"/>
<g>
</g>
<g>
</g>
<g>
</g>
<g>
</g>
<g>
</g>
<g>
</g>
<g>
</g>
<g>
</g>
<g>
</g>
<g>
</g>
<g>
</g>
<g>
</g>
<g>
</g>
<g>
</g>
<g>
</g>
</svg>
